{
    "asset": {
        "generator": "Noesis",
        "version": "2.0"
    },
    "scene": 0,
    "scenes": [
        {
            "nodes": [
                0
            ]
        }
    ],
    "nodes": [
        {
            "name": "mesh0_noesis_meshnode_0000",
            "translation": [
                0.0,
                0.0,
                0.0
            ],
            "rotation": [
                0.0,
                0.0,
                0.0,
                1.0
            ],
            "scale": [
                1.0,
                1.0,
                1.0
            ],
            "mesh": 0
        }
    ],
    "meshes": [
        {
            "primitives": [
                {
                    "attributes": {
                        "POSITION": 1,
                        "NORMAL": 2,
                        "TANGENT": 3,
                        "TEXCOORD_0": 4
                    },
                    "indices": 0,
                    "material": 0,
                    "mode": 4
                }
            ],
            "name": "mesh0"
        }
    ],
    "materials": [
        {
            "pbrMetallicRoughness": {
                "baseColorTexture": {
                    "index": 0
                },
                "metallicFactor": 0.0
            },
            "name": "skin0"
        }
    ],
    "textures": [
        {
            "sampler": 0,
            "source": 0
        }
    ],
    "images": [
        {
            "uri": "g_lightout0_tex00.png"
        }
    ],
    "samplers": [
        {
            "magFilter": 9729,
            "minFilter": 9729,
            "wrapS": 10497,
            "wrapT": 10497
        }
    ],
    "accessors": [
        {
            "bufferView": 0,
            "byteOffset": 0,
            "componentType": 5123,
            "count": 678,
            "max": [
                226
            ],
            "min": [
                0
            ],
            "type": "SCALAR"
        },
        {
            "bufferView": 1,
            "byteOffset": 0,
            "componentType": 5126,
            "count": 227,
            "max": [
                20.687587738037109375,
                6.40708255767822265625,
                36.352512359619140625
            ],
            "min": [
                -14.208927154541015625,
                -6.174205780029296875,
                23.94989013671875
            ],
            "type": "VEC3"
        },
        {
            "bufferView": 2,
            "byteOffset": 0,
            "componentType": 5126,
            "count": 227,
            "max": [
                0.864188015460968017578125,
                1.0,
                0.95542299747467041015625
            ],
            "min": [
                -1.0,
                -1.0,
                -1.0
            ],
            "type": "VEC3"
        },
        {
            "bufferView": 3,
            "byteOffset": 0,
            "componentType": 5126,
            "count": 227,
            "max": [
                0.999417006969451904296875,
                1.0,
                0.9964883327484130859375,
                1.0
            ],
            "min": [
                -0.95635879039764404296875,
                -1.0,
                -0.993902742862701416015625,
                -1.0
            ],
            "type": "VEC4"
        },
        {
            "bufferView": 4,
            "byteOffset": 0,
            "componentType": 5126,
            "count": 227,
            "max": [
                0.991883099079132080078125,
                0.9756944179534912109375
            ],
            "min": [
                0.02435064874589443206787109375,
                0.017361111938953399658203125
            ],
            "type": "VEC2"
        }
    ],
    "bufferViews": [
        {
            "buffer": 0,
            "byteOffset": 0,
            "byteLength": 1356,
            "target": 34963
        },
        {
            "buffer": 0,
            "byteOffset": 1356,
            "byteLength": 2724,
            "byteStride": 12,
            "target": 34962
        },
        {
            "buffer": 0,
            "byteOffset": 4080,
            "byteLength": 2724,
            "byteStride": 12,
            "target": 34962
        },
        {
            "buffer": 0,
            "byteOffset": 6804,
            "byteLength": 3632,
            "byteStride": 16,
            "target": 34962
        },
        {
            "buffer": 0,
            "byteOffset": 10436,
            "byteLength": 1816,
            "byteStride": 8,
            "target": 34962
        }
    ],
    "buffers": [
        {
            "byteLength": 12252,
            "uri": "g_lightout0.bin"
        }
    ]
}
