{
    "asset": {
        "generator": "Noesis",
        "version": "2.0"
    },
    "scene": 0,
    "scenes": [
        {
            "nodes": [
                0
            ]
        }
    ],
    "nodes": [
        {
            "name": "mesh0_noesis_meshnode_0000",
            "translation": [
                0.0,
                0.0,
                0.0
            ],
            "rotation": [
                0.0,
                0.0,
                0.0,
                1.0
            ],
            "scale": [
                1.0,
                1.0,
                1.0
            ],
            "mesh": 0
        }
    ],
    "meshes": [
        {
            "primitives": [
                {
                    "attributes": {
                        "POSITION": 1,
                        "NORMAL": 2,
                        "TANGENT": 3,
                        "TEXCOORD_0": 4
                    },
                    "indices": 0,
                    "material": 0,
                    "mode": 4
                }
            ],
            "name": "mesh0"
        }
    ],
    "materials": [
        {
            "pbrMetallicRoughness": {
                "baseColorTexture": {
                    "index": 0
                },
                "metallicFactor": 0.0
            },
            "name": "skin0"
        }
    ],
    "textures": [
        {
            "sampler": 0,
            "source": 0
        }
    ],
    "images": [
        {
            "uri": "invisiblout0_tex00.png"
        }
    ],
    "samplers": [
        {
            "magFilter": 9729,
            "minFilter": 9729,
            "wrapS": 10497,
            "wrapT": 10497
        }
    ],
    "accessors": [
        {
            "bufferView": 0,
            "byteOffset": 0,
            "componentType": 5123,
            "count": 198,
            "max": [
                48
            ],
            "min": [
                0
            ],
            "type": "SCALAR"
        },
        {
            "bufferView": 1,
            "byteOffset": 0,
            "componentType": 5126,
            "count": 49,
            "max": [
                5.034793376922607421875,
                5.029088497161865234375,
                8.518688201904296875
            ],
            "min": [
                -1.118543148040771484375,
                -4.191224575042724609375,
                0.0334066189825534820556640625
            ],
            "type": "VEC3"
        },
        {
            "bufferView": 2,
            "byteOffset": 0,
            "componentType": 5126,
            "count": 49,
            "max": [
                0.951056003570556640625,
                0.951056003570556640625,
                0.95542299747467041015625
            ],
            "min": [
                -0.951056003570556640625,
                -0.951056003570556640625,
                -0.95542299747467041015625
            ],
            "type": "VEC3"
        },
        {
            "bufferView": 3,
            "byteOffset": 0,
            "componentType": 5126,
            "count": 49,
            "max": [
                0.91900539398193359375,
                0.999879300594329833984375,
                0.646894276142120361328125,
                1.0
            ],
            "min": [
                -0.988970279693603515625,
                -0.8899471759796142578125,
                -0.690884768962860107421875,
                -1.0
            ],
            "type": "VEC4"
        },
        {
            "bufferView": 4,
            "byteOffset": 0,
            "componentType": 5126,
            "count": 49,
            "max": [
                0.947115361690521240234375,
                0.97115385532379150390625
            ],
            "min": [
                0.052884615957736968994140625,
                0.18269230425357818603515625
            ],
            "type": "VEC2"
        }
    ],
    "bufferViews": [
        {
            "buffer": 0,
            "byteOffset": 0,
            "byteLength": 396,
            "target": 34963
        },
        {
            "buffer": 0,
            "byteOffset": 396,
            "byteLength": 588,
            "byteStride": 12,
            "target": 34962
        },
        {
            "buffer": 0,
            "byteOffset": 984,
            "byteLength": 588,
            "byteStride": 12,
            "target": 34962
        },
        {
            "buffer": 0,
            "byteOffset": 1572,
            "byteLength": 784,
            "byteStride": 16,
            "target": 34962
        },
        {
            "buffer": 0,
            "byteOffset": 2356,
            "byteLength": 392,
            "byteStride": 8,
            "target": 34962
        }
    ],
    "buffers": [
        {
            "byteLength": 2748,
            "uri": "invisiblout0.bin"
        }
    ]
}
